<?xml version="1.0" encoding="utf-8"?>
<!-- Generator: Adobe Illustrator 26.0.2, SVG Export Plug-In . SVG Version: 6.00 Build 0)  -->
<svg version="1.1" id="Layer_1" xmlns="http://www.w3.org/2000/svg" xmlns:xlink="http://www.w3.org/1999/xlink" x="0px" y="0px"
	 viewBox="0 0 725.3 462.7" style="enable-background:new 0 0 725.3 462.7;" xml:space="preserve">
<style type="text/css">
	.st0{fill:url(#SVGID_1_);}
	.st1{fill:url(#SVGID_00000080164468284872513220000011313764889091687312_);}
	.st2{fill:url(#SVGID_00000083792870192243029190000005224523611702765461_);}
	.st3{fill:#666666;}
</style>
<g>
	<g>
		<linearGradient id="SVGID_1_" gradientUnits="userSpaceOnUse" x1="111.2701" y1="309.304" x2="251.1357" y2="233.5062">
			<stop  offset="0" style="stop-color:#0B0091"/>
			<stop  offset="8.489490e-02" style="stop-color:#0B0995"/>
			<stop  offset="0.2235" style="stop-color:#0A219F"/>
			<stop  offset="0.3985" style="stop-color:#0849B1"/>
			<stop  offset="0.6031" style="stop-color:#0580C8"/>
			<stop  offset="0.8298" style="stop-color:#02C6E6"/>
			<stop  offset="1" style="stop-color:#00FFFF"/>
		</linearGradient>
		<path class="st0" d="M220.3,273c-15.2,71.7-78.3,93.9-78.3,93.9c-33.5-18.7-56.6-43.9-72.3-70.5c1.6,2.4,17.4,24.2,59.8,3.5
			c10.9-5.3,21-12.5,29.9-20.4c0,0,0.1-0.1,0.2-0.1c21.9-19.4,37-42.7,42.3-51.3c0,0,0,0,0,0l0.1-0.1c0.1-0.2,0.3-0.4,0.4-0.6
			c0.5-0.8,1-1.7,1.5-2.6c0,0,0-0.1,0-0.1c0,0,0,0,0-0.1c0,0,0,0,0,0c1.6-3.3,2.5-7.1,2.5-11.1c0-10-5.8-18.8-14.2-23
			C203.9,195.8,232.6,215.3,220.3,273z"/>
		
			<linearGradient id="SVGID_00000049922184853641625470000005622011075375535256_" gradientUnits="userSpaceOnUse" x1="160.3195" y1="109.9967" x2="156.3543" y2="323.4258">
			<stop  offset="0" style="stop-color:#0B0091"/>
			<stop  offset="8.489490e-02" style="stop-color:#0B0995"/>
			<stop  offset="0.2235" style="stop-color:#0A219F"/>
			<stop  offset="0.3985" style="stop-color:#0849B1"/>
			<stop  offset="0.6031" style="stop-color:#0580C8"/>
			<stop  offset="0.8298" style="stop-color:#02C6E6"/>
			<stop  offset="1" style="stop-color:#00FFFF"/>
		</linearGradient>
		<path style="fill:url(#SVGID_00000049922184853641625470000005622011075375535256_);" d="M282.6,141.7c0,0-36.4-9.5-96.2,5.7
			c-57.9,14.8-71.8,54.3-72.6,56.7c0,0.1,0,0.1,0,0.1c-1,2.5-1.5,5.3-1.6,8.1v0.1c0,0.3,0,0.5,0,0.8c0,0.5,0,1,0,1.4
			c0,0.2,0,0.3,0,0.5c0,0.7,0.1,1.3,0.2,1.7c0,0.1,0,0.2,0,0.2c0,0.3,0.1,0.5,0.1,0.5c0.4,2,0.9,4,1.8,5.8c0,0,0,0,0,0s0,0.1,0,0.1
			c0.5,1.2,1.1,2.3,1.8,3.4c0.1,0.2,0.2,0.4,0.4,0.6l0.5,0.5c0,0,0,0,0,0c5.9,9.6,21,32.2,42.5,51c0,0.1-0.1,0.1-0.2,0.1
			c-8.9,7.9-18.9,15.1-29.9,20.4c-42.4,20.7-58.2-1.1-59.8-3.5c0-0.1-0.1-0.1-0.1-0.1c0-0.1,0-0.1,0-0.1c-4-6.7-7.5-13.5-10.5-20.3
			c0,0,0,0,0,0c-1.3-2.9-2.6-5.9-3.8-8.8c-25.4-63.2-17.7-125.2-17.7-125.2c62.7-43,122.5-54.9,122.5-54.9s52.9,10.6,111.4,47.6
			c0,0,0,0,0,0c1.1,0.7,2.3,1.4,3.4,2.2c0,0,0,0,0,0C277.5,138.3,280.1,140,282.6,141.7z"/>
		
			<linearGradient id="SVGID_00000122721173567704797850000014015227523003989437_" gradientUnits="userSpaceOnUse" x1="241.3026" y1="303.0355" x2="151.8583" y2="152.611">
			<stop  offset="0" style="stop-color:#0B0091"/>
			<stop  offset="8.489487e-02" style="stop-color:#0B0995"/>
			<stop  offset="0.2235" style="stop-color:#0A219F"/>
			<stop  offset="0.3985" style="stop-color:#0849B1"/>
			<stop  offset="0.6031" style="stop-color:#0580C8"/>
			<stop  offset="0.8298" style="stop-color:#02C6E6"/>
			<stop  offset="1" style="stop-color:#00FFFF"/>
		</linearGradient>
		<path style="fill:url(#SVGID_00000122721173567704797850000014015227523003989437_);" d="M241.2,310.7
			c-4.9,6.9-10.4,13.7-16.6,20.2c0,0,0,0,0,0c-16.5,17.5-37.6,33.2-64.5,45c-6.3-2.8-12.4-5.8-18.1-9c0,0,63.1-22.2,78.3-93.9
			c12.3-57.6-16.5-77.2-28.2-82.6c-1.3-0.7-2.7-1.2-4.2-1.7c-0.3-0.1-0.5-0.2-0.5-0.2c-2.1-0.6-4.4-0.9-6.7-0.9c-0.1,0-0.1,0-0.2,0
			c-3.3,0-6.4,0.6-9.2,1.7c-0.1,0-0.1,0-0.2,0.1c-0.1,0-0.1,0.1-0.2,0.1c-0.1,0-0.1,0-0.2,0.1c-0.1,0.1-0.3,0.1-0.4,0.2
			c-0.1,0-0.2,0.1-0.3,0.1c-0.1,0-0.2,0.1-0.3,0.1c-0.2,0.1-0.4,0.2-0.4,0.2c-4.1,2-7.7,5-10.2,8.8c-4.6-6.8-12.5-11.3-21.3-11.3
			c-11,0-20.4,6.9-24.1,16.6c0.8-2.5,14.6-42,72.6-56.7c59.8-15.2,96.2-5.7,96.2-5.7S294.3,236.2,241.2,310.7z"/>
	</g>
	<g>
		<g>
			<path class="st3" d="M356.5,217H352v-60.8h-21.1V152h46.9v4.3h-21.1V217z"/>
			<path class="st3" d="M390.8,188.7V217h-4.5V152h15.5c8.1,0,14,1.5,17.9,4.5c3.9,3,5.8,7.5,5.8,13.5c0,4.4-1.2,8-3.4,11
				c-2.3,3-5.8,5.1-10.5,6.5l17.7,29.6h-5.4L407,188.7H390.8z M390.8,184.8h12.4c5.5,0,9.7-1.2,12.8-3.7c3-2.4,4.5-6.1,4.5-10.8
				c0-5-1.5-8.6-4.5-10.8c-3-2.3-7.8-3.4-14.5-3.4h-10.8V184.8z"/>
			<path class="st3" d="M485.6,152v42.1c0,7.5-2.2,13.3-6.5,17.5c-4.3,4.2-10.4,6.3-18.1,6.3c-7.5,0-13.4-2.1-17.6-6.3
				c-4.2-4.2-6.3-10.1-6.3-17.7V152h4.6v42.1c0,6.3,1.7,11.1,5.2,14.6c3.5,3.5,8.4,5.2,14.7,5.2c6.2,0,11-1.7,14.4-5.1
				c3.4-3.4,5.1-8.2,5.1-14.3V152H485.6z"/>
			<path class="st3" d="M535.7,200.3c0,5.4-2,9.7-6,12.9c-4,3.2-9.3,4.8-15.9,4.8c-8,0-14.1-0.9-18.3-2.6v-4.5c4.7,2,10.7,3,17.9,3
				c5.3,0,9.6-1.2,12.7-3.7c3.1-2.4,4.7-5.7,4.7-9.6c0-2.5-0.5-4.5-1.6-6.1c-1-1.6-2.7-3.1-5.1-4.4c-2.3-1.3-5.8-2.8-10.3-4.3
				c-6.6-2.3-11.2-4.8-13.8-7.4c-2.5-2.7-3.8-6.2-3.8-10.6c0-4.9,1.9-8.8,5.7-11.9c3.8-3.1,8.7-4.6,14.7-4.6
				c6.1,0,11.9,1.2,17.2,3.5l-1.6,3.9c-5.4-2.3-10.6-3.4-15.5-3.4c-4.8,0-8.6,1.1-11.5,3.3s-4.3,5.3-4.3,9.1c0,2.4,0.4,4.4,1.3,5.9
				c0.9,1.5,2.3,2.9,4.3,4.2c2,1.2,5.4,2.7,10.2,4.4c5.1,1.8,8.9,3.4,11.4,5.1c2.6,1.6,4.4,3.5,5.6,5.6
				C535.1,194.8,535.7,197.3,535.7,200.3z"/>
			<path class="st3" d="M567,217h-4.6v-60.8h-21.1V152h46.9v4.3H567V217z"/>
			<path class="st3" d="M621.4,217V152h4.5V217H621.4z"/>
			<path class="st3" d="M688.9,217h-4.6l-38.5-57.8h-0.4c0.4,6.9,0.5,12.1,0.5,15.6V217h-4.4V152h4.5l38.5,57.7h0.3
				c-0.3-5.3-0.4-10.4-0.4-15.2V152h4.4V217z"/>
		</g>
	</g>
	<g>
		<g>
			<path class="st3" d="M391.1,305.1h-18.7V277h-21.6v28.1h-18.7v-68.9h18.7v25.5h21.6v-25.5h18.7V305.1z"/>
			<path class="st3" d="M445.5,305.1h-40.9v-68.9h40.9v14.9h-22.3V262h20.6v14.9h-20.6v13h22.3V305.1z"/>
			<path class="st3" d="M500.6,305.1l-3.4-12.9h-22.4l-3.5,12.9h-20.4l22.5-69.1h24.8l22.8,69.1H500.6z M493.4,276.9l-3-11.3
				c-0.7-2.5-1.5-5.8-2.5-9.8c-1-4-1.6-6.8-2-8.6c-0.3,1.6-0.8,4.2-1.7,7.9c-0.8,3.7-2.7,10.9-5.5,21.7H493.4z"/>
			<path class="st3" d="M527.8,305.1v-68.9h18.6V290h26.5v15H527.8z"/>
			<path class="st3" d="M605.2,305.1h-18.6v-53.7h-16.8v-15.2H622v15.2h-16.8V305.1z"/>
			<path class="st3" d="M688.9,305.1h-18.7V277h-21.6v28.1h-18.7v-68.9h18.7v25.5h21.6v-25.5h18.7V305.1z"/>
		</g>
	</g>
</g>
</svg>
